<?xml version="1.0" encoding="UTF-8" standalone="no"?>
<!DOCTYPE svg PUBLIC "-//W3C//DTD SVG 1.1//EN" "http://www.w3.org/Graphics/SVG/1.1/DTD/svg11.dtd">
<svg width="100%" height="100%" viewBox="0 0 28 31" version="1.1" xmlns="http://www.w3.org/2000/svg" xmlns:xlink="http://www.w3.org/1999/xlink" xml:space="preserve" xmlns:serif="http://www.serif.com/" style="fill-rule:evenodd;clip-rule:evenodd;stroke-linejoin:round;stroke-miterlimit:2;">
    <g transform="matrix(1,0,0,1,-1579.54,-490.716)">
        <g transform="matrix(0.45273,0,0,0.45273,752.664,171.695)">
            <g transform="matrix(2.55331,0,0,2.55331,1565.17,23.2792)">
                <g transform="matrix(0.850696,0,0,1.09782,9.51522,-29.208)">
                    <path d="M136.692,271.828C136.692,270.647 135.456,269.689 133.932,269.689L111.853,269.689C110.329,269.689 109.093,270.647 109.093,271.828L109.093,291.258C109.093,292.438 110.329,293.397 111.853,293.397L133.932,293.397C135.456,293.397 136.692,292.438 136.692,291.258L136.692,271.828Z" style="fill:rgb(228,10,20);"/>
                </g>
                <g transform="matrix(1.10715,0,0,1.10715,-11.2334,-30.0143)">
                    <path d="M110.124,271.593L110.124,272.442L108.814,272.442L108.814,275.634L107.609,275.819L107.609,272.442L106.299,272.442L106.299,271.593L110.124,271.593Z" style="fill:white;fill-rule:nonzero;"/>
                    <path d="M113.069,275.985C112.604,275.985 112.178,275.89 111.79,275.7C111.403,275.51 111.095,275.245 110.867,274.904C110.64,274.563 110.526,274.18 110.526,273.755C110.526,273.33 110.64,272.948 110.867,272.609C111.095,272.27 111.403,272.006 111.79,271.816C112.178,271.626 112.604,271.531 113.069,271.531C113.534,271.531 113.96,271.626 114.347,271.816C114.735,272.006 115.04,272.27 115.263,272.609C115.486,272.948 115.598,273.33 115.598,273.755C115.598,274.18 115.485,274.563 115.26,274.904C115.034,275.245 114.729,275.51 114.344,275.7C113.959,275.89 113.534,275.985 113.069,275.985ZM113.069,275.019C113.463,275.019 113.779,274.903 114.016,274.672C114.253,274.44 114.372,274.135 114.372,273.755C114.372,273.371 114.253,273.064 114.016,272.835C113.779,272.606 113.463,272.491 113.069,272.491C112.67,272.491 112.351,272.605 112.114,272.832C111.877,273.059 111.758,273.367 111.758,273.755C111.758,274.139 111.877,274.446 112.114,274.675C112.351,274.904 112.67,275.019 113.069,275.019Z" style="fill:white;fill-rule:nonzero;"/>
                    <path d="M120.036,272.993C120.036,273.245 119.97,273.475 119.839,273.684C119.707,273.892 119.505,274.061 119.233,274.189C118.96,274.317 118.622,274.381 118.218,274.381L117.472,274.381L117.472,275.942L116.267,275.687L116.267,271.593L118.218,271.593C118.613,271.593 118.946,271.653 119.219,271.773C119.491,271.892 119.695,272.058 119.832,272.268C119.968,272.479 120.036,272.72 120.036,272.993ZM118.127,273.538C118.357,273.538 118.528,273.491 118.641,273.396C118.754,273.301 118.81,273.166 118.81,272.993C118.81,272.819 118.754,272.685 118.641,272.59C118.528,272.495 118.357,272.448 118.127,272.448L117.472,272.448L117.472,273.538L118.127,273.538Z" style="fill:white;fill-rule:nonzero;"/>
                </g>
                <g transform="matrix(2.52193,0,0,2.52193,-160.859,-407.957)">
                    <path d="M106.576,271.94L106.576,271.426L107.722,271.187L107.722,275.942L107.074,275.942L107.074,271.816L106.576,271.94Z" style="fill:white;fill-rule:nonzero;"/>
                    <path d="M108.081,273.656C108.081,272.945 108.213,272.391 108.476,271.992C108.739,271.594 109.199,271.395 109.856,271.395C110.509,271.395 110.967,271.594 111.23,271.992C111.493,272.391 111.625,272.945 111.625,273.656C111.625,274.379 111.493,274.94 111.23,275.341C110.967,275.741 110.509,275.942 109.856,275.942C109.199,275.942 108.739,275.741 108.476,275.341C108.213,274.94 108.081,274.379 108.081,273.656ZM110.991,273.656C110.991,273.296 110.964,272.992 110.91,272.742C110.856,272.492 110.745,272.291 110.578,272.138C110.412,271.985 110.171,271.909 109.856,271.909C109.537,271.909 109.294,271.985 109.127,272.138C108.961,272.291 108.85,272.492 108.796,272.742C108.742,272.992 108.715,273.296 108.715,273.656C108.715,274.027 108.742,274.339 108.796,274.591C108.85,274.843 108.961,275.045 109.127,275.198C109.294,275.351 109.537,275.427 109.856,275.427C110.171,275.427 110.412,275.351 110.578,275.198C110.745,275.045 110.856,274.843 110.91,274.591C110.964,274.339 110.991,274.027 110.991,273.656Z" style="fill:white;fill-rule:nonzero;"/>
                </g>
            </g>
        </g>
    </g>
</svg>
